<svg xmlns="http://www.w3.org/2000/svg" version="1.1" xmlns:xlink="http://www.w3.org/1999/xlink" width="512" height="512" x="0" y="0" viewBox="0 0 512 512" style="enable-background:new 0 0 512 512" xml:space="preserve" class=""><g><path d="M422 90 392 0H166c-24.902 0-45 20.099-45 45v422c0 24.899 20.098 45 45 45h301c24.902 0 45-20.101 45-45V120l-90-30z" style="" fill="#cae8f9" data-original="#cae8f9"></path><path d="M406 151H45c-24.902 0-45 20.099-45 45v180c0 24.899 20.098 45 45 45h361c24.902 0 45-20.101 45-45V196c0-24.901-20.098-45-45-45z" style="" fill="#fd4e26" data-original="#fd4e26" class=""></path><path d="M512 120v347c0 24.899-20.098 45-45 45H316V0h76l30 90 90 30z" style="" fill="#b7e0f6" data-original="#b7e0f6" class=""></path><path d="M451 196v180c0 24.899-20.098 45-45 45h-90V151h90c24.902 0 45 20.099 45 45z" style="" fill="#fd3018" data-original="#fd3018" class=""></path><path d="M106 361c-24.814 0-45-20.186-45-45v-60c0-24.814 20.186-45 45-45s45 20.186 45 45c0 8.291-6.709 15-15 15s-15-6.709-15-15c0-8.276-6.738-15-15-15s-15 6.724-15 15v60c0 8.276 6.738 15 15 15s15-6.724 15-15c0-8.291 6.709-15 15-15s15 6.709 15 15c0 24.814-20.186 45-45 45zM226 271c-13.383 0-20.025-16.22-10.576-25.62 5.625-5.654 15.527-5.654 21.152 0 5.859 5.889 15.381 5.859 21.24.029 5.859-5.845 5.859-15.352.029-21.211C231.049 197.356 181 214.796 181 256c0 24.664 19.929 45 45 45 8.323 0 15 6.745 15 15 0 13.751-16.627 19.616-25.576 10.62-5.859-5.889-15.381-5.859-21.24-.029-5.859 5.845-5.859 15.352-.029 21.211C222.613 376.309 271 355.742 271 316c0-24.664-19.929-45-45-45zM391 316c0 38.699-46.501 59.399-75 33.3-.601-.3-1.201-.901-1.802-1.5-5.999-6-5.999-15.3 0-21.301.601-.601 1.201-.899 1.802-1.199 5.698-4.501 14.099-3.9 19.501 1.199 8.998 9 25.499 3.3 25.499-10.499 0-8.401-6.599-15-15-15-11.7 0-22.2-4.2-30-11.7-9.302-8.101-15-20.099-15-33.3 0-14.101 5.999-25.501 15-33.001 16.802-15 44.399-16.199 61.802 1.201 5.999 6 5.999 15.3 0 21.299-5.702 5.7-15.3 5.7-21.302 0-8.998-9-25.499-3.3-25.499 10.501 0 8.399 6.599 15 15 15C371.203 271 391 291.4 391 316z" style="" fill="#cae8f9" data-original="#cae8f9"></path><path d="M391 316c0 38.699-46.501 59.399-75 33.3v-24c5.698-4.501 14.099-3.9 19.501 1.199 8.998 9 25.499 3.3 25.499-10.499 0-8.401-6.599-15-15-15-11.7 0-22.2-4.2-30-11.7v-66.301c16.802-15 44.399-16.199 61.802 1.201 5.999 6 5.999 15.3 0 21.299-5.702 5.7-15.3 5.7-21.302 0-8.998-9-25.499-3.3-25.499 10.501 0 8.399 6.599 15 15 15C371.203 271 391 291.4 391 316z" style="" fill="#b7e0f6" data-original="#b7e0f6" class=""></path><path d="M392 0v105c0 8.399 6.599 15 15 15h105L392 0z" style="" fill="#57555c" data-original="#57555c"></path></g></svg>