<svg xmlns="http://www.w3.org/2000/svg" version="1.1" xmlns:xlink="http://www.w3.org/1999/xlink" width="512" height="512" x="0" y="0" viewBox="0 0 512 512" style="enable-background:new 0 0 512 512" xml:space="preserve" class=""><g><path d="M432.552 105.931c-14.626 0-26.483-11.857-26.483-26.483V0H167.724c-14.626 0-26.483 11.857-26.483 26.483v61.793h220.69c9.751 0 17.655 7.905 17.655 17.655v123.586c0 9.75-7.904 17.655-17.655 17.655h-220.69v238.345c0 14.626 11.857 26.483 26.483 26.483h317.793C500.143 512 512 500.143 512 485.517V105.931h-79.448zm-152.656 320.38a8.825 8.825 0 0 1 0 12.483c-1.724 1.724-3.982 2.585-6.241 2.585s-4.518-.862-6.241-2.586l-52.966-52.966a8.825 8.825 0 0 1 0-12.483l52.966-52.966c3.448-3.448 9.035-3.448 12.483 0s3.448 9.035 0 12.483l-46.724 46.724 46.723 46.726zm81.474-114.242L308.404 453.31a8.832 8.832 0 0 1-16.536-6.208l52.966-141.241c1.716-4.561 6.802-6.854 11.367-5.164 4.566 1.717 6.881 6.803 5.169 11.372zm77.423 73.758-52.966 52.966c-1.724 1.725-3.982 2.586-6.241 2.586s-4.518-.862-6.241-2.586a8.825 8.825 0 0 1 0-12.483l46.724-46.723-46.724-46.724c-3.448-3.448-3.448-9.035 0-12.483s9.035-3.448 12.483 0l52.966 52.966a8.824 8.824 0 0 1-.001 12.481z" style="" fill="#e4eaf6" data-original="#e4eaf6"></path><path d="M432.552 105.931H512L406.069 0v79.448c0 14.626 11.857 26.483 26.483 26.483z" style="" fill="#d2dcf0" data-original="#d2dcf0"></path><path d="M379.586 229.517V105.931c0-9.75-7.904-17.655-17.655-17.655H17.655C7.904 88.276 0 96.181 0 105.931v123.586c0 9.75 7.904 17.655 17.655 17.655h344.276c9.751 0 17.655-7.905 17.655-17.655zm-273.655-26.483a8.826 8.826 0 0 1-8.828 8.828 8.826 8.826 0 0 1-8.828-8.828v-17.655H44.138v17.655c0 4.879-3.953 8.828-8.828 8.828s-8.828-3.948-8.828-8.828v-70.621c0-4.879 3.953-8.828 8.828-8.828s8.828 3.948 8.828 8.828v35.31h44.138v-35.31a8.826 8.826 0 0 1 8.828-8.828 8.826 8.826 0 0 1 8.828 8.828v70.621zm70.621-61.793h-17.655v61.793a8.826 8.826 0 0 1-8.828 8.828 8.826 8.826 0 0 1-8.828-8.828v-61.793h-17.655a8.826 8.826 0 0 1-8.828-8.828 8.826 8.826 0 0 1 8.828-8.828h52.966a8.826 8.826 0 0 1 8.828 8.828 8.826 8.826 0 0 1-8.828 8.828zm97.103 61.793c0 4.879-3.953 8.828-8.828 8.828S256 207.914 256 203.034v-38.75l-10.087 16.81a8.834 8.834 0 0 1-7.569 4.285h-8.828c-3.1 0-5.974-1.63-7.569-4.285l-10.087-16.81v38.75c0 4.879-3.953 8.828-8.828 8.828s-8.828-3.948-8.828-8.828v-70.621a8.832 8.832 0 0 1 6.47-8.509c3.84-1.043 7.887.569 9.927 3.966l23.328 38.879 23.328-38.879c2.039-3.414 6.087-5.017 9.927-3.966a8.832 8.832 0 0 1 6.47 8.509v70.621zm70.621 8.828h-44.138a8.826 8.826 0 0 1-8.828-8.828v-70.621c0-4.879 3.953-8.828 8.828-8.828s8.828 3.948 8.828 8.828v61.793h35.31c4.875 0 8.828 3.948 8.828 8.828s-3.953 8.828-8.828 8.828z" style="" fill="#ff694b" data-original="#ff694b" class=""></path><path d="M97.103 123.586a8.826 8.826 0 0 0-8.828 8.828v35.31H44.138v-35.31c0-4.879-3.953-8.828-8.828-8.828s-8.828 3.948-8.828 8.828v70.621c0 4.879 3.953 8.828 8.828 8.828s8.828-3.948 8.828-8.828V185.38h44.138v17.655a8.826 8.826 0 0 0 8.828 8.828 8.826 8.826 0 0 0 8.828-8.828v-70.621a8.827 8.827 0 0 0-8.829-8.828zM267.186 123.905c-3.84-1.052-7.887.552-9.927 3.966l-23.328 38.879-23.328-38.879c-2.039-3.396-6.087-5.009-9.927-3.966a8.832 8.832 0 0 0-6.47 8.509v70.621c0 4.879 3.953 8.828 8.828 8.828s8.828-3.948 8.828-8.828v-38.75l10.087 16.81a8.835 8.835 0 0 0 7.569 4.285h8.828c3.1 0 5.974-1.63 7.569-4.285L256 164.285v38.75c0 4.879 3.953 8.828 8.828 8.828s8.828-3.948 8.828-8.828v-70.621a8.834 8.834 0 0 0-6.47-8.509zM176.552 123.586h-52.966a8.826 8.826 0 0 0-8.828 8.828 8.826 8.826 0 0 0 8.828 8.828h17.655v61.793a8.826 8.826 0 0 0 8.828 8.828 8.826 8.826 0 0 0 8.828-8.828v-61.793h17.655a8.826 8.826 0 0 0 8.828-8.828 8.826 8.826 0 0 0-8.828-8.828zM344.276 194.207h-35.31v-61.793c0-4.879-3.953-8.828-8.828-8.828s-8.828 3.948-8.828 8.828v70.621a8.826 8.826 0 0 0 8.828 8.828h44.138c4.875 0 8.828-3.948 8.828-8.828s-3.953-8.828-8.828-8.828z" style="" fill="#ffffff" data-original="#ffffff"></path><path d="M356.203 300.698c-4.565-1.689-9.651.604-11.367 5.164L291.87 447.103c-1.711 4.569.604 9.655 5.169 11.371a8.83 8.83 0 0 0 11.367-5.164l52.966-141.241a8.838 8.838 0 0 0-5.169-11.371zM279.896 320.38a8.825 8.825 0 0 0-12.483 0l-52.966 52.966a8.825 8.825 0 0 0 0 12.483l52.966 52.966a8.795 8.795 0 0 0 6.241 2.586 8.796 8.796 0 0 0 6.241-2.586 8.825 8.825 0 0 0 0-12.483l-46.722-46.724 46.724-46.724a8.825 8.825 0 0 0-.001-12.484zM385.827 320.38c-3.448-3.448-9.035-3.448-12.483 0s-3.448 9.035 0 12.483l46.725 46.723-46.724 46.724a8.825 8.825 0 0 0 0 12.483c1.725 1.725 3.982 2.586 6.241 2.586s4.518-.862 6.241-2.586l52.966-52.966a8.825 8.825 0 0 0 0-12.483l-52.966-52.964z" style="" fill="#ff694b" data-original="#ff694b" class=""></path></g></svg>