<svg xmlns="http://www.w3.org/2000/svg" version="1.1" xmlns:xlink="http://www.w3.org/1999/xlink" width="512" height="512" x="0" y="0" viewBox="0 0 1707 1707" style="enable-background:new 0 0 512 512" xml:space="preserve" fill-rule="evenodd" class=""><g><path fill="#bce2f6" d="M227 1042V228C227 102 330 0 455 0h713c-4 0-8 1-11 2-12 5-20 17-20 29v208c0 57 47 103 103 103h209c15 0 28-11 31-26v726z" opacity="1" data-original="#bce2f6" class=""></path><path fill="#98b7c7" d="M1449 342h-209c-56 0-103-46-103-103V0h31c8 0 17 3 23 9l277 277c7 6 12 15 12 25v31z" opacity="1" data-original="#98b7c7"></path><path fill="#ffe600" d="M1501 1707H205c-79 0-143-65-143-143v-379c0-79 64-143 143-143h1296c79 0 143 64 143 143v379c0 78-64 143-143 143z" opacity="1" data-original="#ffe600" class=""></path><path fill="#333333" d="M1253 924H454c-13 0-23-10-23-23 0-12 10-23 23-23h799c12 0 22 11 22 23 0 13-10 23-22 23zm0-175H454c-13 0-23-10-23-22 0-13 10-23 23-23h799c12 0 22 10 22 23 0 12-10 22-22 22zm0-174H454c-13 0-23-10-23-23 0-12 10-23 23-23h799c12 0 22 11 22 23 0 13-10 23-22 23zm-206-289-92-92c-9-9-9-23 0-32s23-9 32 0l108 107c4 5 6 11 6 17s-2 11-6 16L987 409c-4 4-10 7-16 7s-12-3-16-7c-9-9-9-23 0-32zm-390 0 91 91c9 9 9 23 0 32-4 4-10 7-16 7s-12-3-16-7L609 302c-5-5-7-10-7-16s2-12 7-17l107-107c9-9 23-9 32 0s9 23 0 32zm166 134c-5 0-2 0-6-1-12-3-19-16-16-28l58-216c3-12 16-20 28-16 12 3 19 15 16 27l-58 217c-3 10-12 17-22 17zM674 1591c-30 0-60-9-84-29-27-22-40-53-40-87v-18c0-13 11-23 23-23 13 0 23 10 23 23v18c0 21 7 39 23 52 29 24 82 24 111 0 17-13 24-32 24-53v-283c0-12 10-22 23-22 12 0 22 10 22 22v283c0 71-56 117-125 117zm336 0c-57 0-123-30-141-89-3-9-5-18-5-28 0-13 10-23 23-23s23 10 23 23c0 3 0 6 1 9 8 42 61 62 99 62s92-20 100-62c1-3 1-6 1-9 0-12-2-25-10-35-17-24-67-32-95-37-70-13-142-29-142-116 0-10 2-20 5-29 18-58 84-88 141-88 58 0 123 30 142 88 3 9 4 19 4 29 0 12-10 22-22 22-13 0-23-10-23-22 0-3 0-7-1-10-8-42-62-62-100-62s-91 20-99 62c-1 3-1 7-1 10 0 12 2 24 9 34 18 25 68 32 95 37 71 13 142 29 142 117 0 10-1 19-4 28-19 59-84 89-142 89z" opacity="1" data-original="#333333"></path></g></svg>